<svg xmlns="http://www.w3.org/2000/svg" width="67.994" height="67.994" viewBox="0 0 67.994 67.994">
  <g id="ic_error" transform="translate(-1.25 -1.25)">
    <g id="error-box" transform="translate(1.25 1.25)">
      <path id="Subtract" d="M1.25,22.6A21.347,21.347,0,0,1,22.6,1.25H47.9A21.347,21.347,0,0,1,69.244,22.6V47.9A21.347,21.347,0,0,1,47.9,69.244H22.6A21.347,21.347,0,0,1,1.25,47.9Zm22.832,1.485a2.372,2.372,0,0,1,3.354,0l7.81,7.81,7.81-7.81a2.372,2.372,0,1,1,3.354,3.354l-7.81,7.81,7.81,7.81a2.372,2.372,0,0,1-3.354,3.354l-7.81-7.81-7.81,7.81a2.372,2.372,0,0,1-3.354-3.354l7.81-7.81-7.81-7.81A2.372,2.372,0,0,1,24.082,24.082Z" transform="translate(-1.25 -1.25)" fill="red" fill-rule="evenodd"/>
    </g>
  </g>
</svg>
